<mxfile host="Electron" modified="2023-11-13T00:02:11.110Z" agent="Mozilla/5.0 (Windows NT 10.0; Win64; x64) AppleWebKit/537.36 (KHTML, like Gecko) draw.io/22.0.3 Chrome/114.0.5735.289 Electron/25.8.4 Safari/537.36" etag="bHJ1Xxu6kPYkzBBikKG5" version="22.0.3" type="device">
  <diagram id="C5RBs43oDa-KdzZeNtuy" name="Page-1">
    <mxGraphModel dx="594" dy="1014" grid="1" gridSize="10" guides="1" tooltips="1" connect="1" arrows="1" fold="1" page="0" pageScale="1" pageWidth="827" pageHeight="1169" math="0" shadow="0">
      <root>
        <mxCell id="WIyWlLk6GJQsqaUBKTNV-0" />
        <mxCell id="WIyWlLk6GJQsqaUBKTNV-1" parent="WIyWlLk6GJQsqaUBKTNV-0" />
        <mxCell id="pWyBiwlsUiZwK8Ym45XD-2" style="edgeStyle=orthogonalEdgeStyle;rounded=0;orthogonalLoop=1;jettySize=auto;html=1;exitX=0.5;exitY=1;exitDx=0;exitDy=0;entryX=0.5;entryY=0;entryDx=0;entryDy=0;" parent="WIyWlLk6GJQsqaUBKTNV-1" source="pWyBiwlsUiZwK8Ym45XD-0" target="pWyBiwlsUiZwK8Ym45XD-1" edge="1">
          <mxGeometry relative="1" as="geometry" />
        </mxCell>
        <mxCell id="pWyBiwlsUiZwK8Ym45XD-0" value="START" style="ellipse;whiteSpace=wrap;html=1;" parent="WIyWlLk6GJQsqaUBKTNV-1" vertex="1">
          <mxGeometry x="340" y="40" width="120" height="80" as="geometry" />
        </mxCell>
        <mxCell id="pWyBiwlsUiZwK8Ym45XD-4" style="edgeStyle=orthogonalEdgeStyle;rounded=0;orthogonalLoop=1;jettySize=auto;html=1;exitX=0.5;exitY=1;exitDx=0;exitDy=0;entryX=0.5;entryY=0;entryDx=0;entryDy=0;" parent="WIyWlLk6GJQsqaUBKTNV-1" source="pWyBiwlsUiZwK8Ym45XD-1" target="pWyBiwlsUiZwK8Ym45XD-3" edge="1">
          <mxGeometry relative="1" as="geometry" />
        </mxCell>
        <mxCell id="pWyBiwlsUiZwK8Ym45XD-1" value="a,b,x" style="shape=parallelogram;perimeter=parallelogramPerimeter;whiteSpace=wrap;html=1;fixedSize=1;" parent="WIyWlLk6GJQsqaUBKTNV-1" vertex="1">
          <mxGeometry x="340" y="160" width="120" height="60" as="geometry" />
        </mxCell>
        <mxCell id="pWyBiwlsUiZwK8Ym45XD-7" style="edgeStyle=orthogonalEdgeStyle;rounded=0;orthogonalLoop=1;jettySize=auto;html=1;exitX=1;exitY=0.5;exitDx=0;exitDy=0;entryX=0;entryY=0.5;entryDx=0;entryDy=0;" parent="WIyWlLk6GJQsqaUBKTNV-1" source="pWyBiwlsUiZwK8Ym45XD-3" edge="1">
          <mxGeometry relative="1" as="geometry">
            <mxPoint x="500" y="320" as="targetPoint" />
          </mxGeometry>
        </mxCell>
        <mxCell id="pWyBiwlsUiZwK8Ym45XD-11" style="edgeStyle=orthogonalEdgeStyle;rounded=0;orthogonalLoop=1;jettySize=auto;html=1;exitX=0;exitY=0.5;exitDx=0;exitDy=0;entryX=1;entryY=0.5;entryDx=0;entryDy=0;" parent="WIyWlLk6GJQsqaUBKTNV-1" source="pWyBiwlsUiZwK8Ym45XD-3" edge="1">
          <mxGeometry relative="1" as="geometry">
            <mxPoint x="290" y="320" as="targetPoint" />
          </mxGeometry>
        </mxCell>
        <mxCell id="pWyBiwlsUiZwK8Ym45XD-3" value="a=0" style="rhombus;whiteSpace=wrap;html=1;" parent="WIyWlLk6GJQsqaUBKTNV-1" vertex="1">
          <mxGeometry x="345" y="270" width="110" height="100" as="geometry" />
        </mxCell>
        <mxCell id="pWyBiwlsUiZwK8Ym45XD-8" value="True" style="text;html=1;align=center;verticalAlign=middle;resizable=0;points=[];autosize=1;strokeColor=none;fillColor=none;" parent="WIyWlLk6GJQsqaUBKTNV-1" vertex="1">
          <mxGeometry x="445" y="278" width="50" height="30" as="geometry" />
        </mxCell>
        <mxCell id="pWyBiwlsUiZwK8Ym45XD-9" value="x = -b/c" style="shape=parallelogram;perimeter=parallelogramPerimeter;whiteSpace=wrap;html=1;fixedSize=1;" parent="WIyWlLk6GJQsqaUBKTNV-1" vertex="1">
          <mxGeometry x="490" y="290" width="120" height="60" as="geometry" />
        </mxCell>
        <mxCell id="Up7lHy-KGbzecZRufIWr-2" style="edgeStyle=orthogonalEdgeStyle;rounded=0;orthogonalLoop=1;jettySize=auto;html=1;exitX=0.5;exitY=1;exitDx=0;exitDy=0;" parent="WIyWlLk6GJQsqaUBKTNV-1" source="Up7lHy-KGbzecZRufIWr-0" target="Up7lHy-KGbzecZRufIWr-1" edge="1">
          <mxGeometry relative="1" as="geometry" />
        </mxCell>
        <mxCell id="Up7lHy-KGbzecZRufIWr-0" value="delta = b^2 - 4*a*c" style="rounded=0;whiteSpace=wrap;html=1;" parent="WIyWlLk6GJQsqaUBKTNV-1" vertex="1">
          <mxGeometry x="165" y="290" width="120" height="60" as="geometry" />
        </mxCell>
        <mxCell id="Up7lHy-KGbzecZRufIWr-4" style="edgeStyle=orthogonalEdgeStyle;rounded=0;orthogonalLoop=1;jettySize=auto;html=1;exitX=1;exitY=0.5;exitDx=0;exitDy=0;entryX=0;entryY=0.5;entryDx=0;entryDy=0;" parent="WIyWlLk6GJQsqaUBKTNV-1" source="Up7lHy-KGbzecZRufIWr-1" target="Up7lHy-KGbzecZRufIWr-3" edge="1">
          <mxGeometry relative="1" as="geometry" />
        </mxCell>
        <mxCell id="Up7lHy-KGbzecZRufIWr-7" style="edgeStyle=orthogonalEdgeStyle;rounded=0;orthogonalLoop=1;jettySize=auto;html=1;exitX=0.5;exitY=1;exitDx=0;exitDy=0;entryX=0.5;entryY=0;entryDx=0;entryDy=0;" parent="WIyWlLk6GJQsqaUBKTNV-1" source="Up7lHy-KGbzecZRufIWr-1" target="Up7lHy-KGbzecZRufIWr-6" edge="1">
          <mxGeometry relative="1" as="geometry" />
        </mxCell>
        <mxCell id="Up7lHy-KGbzecZRufIWr-1" value="b==0 &amp;amp;&amp;amp; c &amp;gt;0" style="rhombus;whiteSpace=wrap;html=1;" parent="WIyWlLk6GJQsqaUBKTNV-1" vertex="1">
          <mxGeometry x="180" y="400" width="90" height="80" as="geometry" />
        </mxCell>
        <mxCell id="Up7lHy-KGbzecZRufIWr-3" value="Phương trình trên&lt;br&gt;vô nghiệm" style="shape=parallelogram;perimeter=parallelogramPerimeter;whiteSpace=wrap;html=1;fixedSize=1;" parent="WIyWlLk6GJQsqaUBKTNV-1" vertex="1">
          <mxGeometry x="325" y="410" width="120" height="60" as="geometry" />
        </mxCell>
        <mxCell id="Up7lHy-KGbzecZRufIWr-5" value="True" style="text;html=1;align=center;verticalAlign=middle;resizable=0;points=[];autosize=1;strokeColor=none;fillColor=none;" parent="WIyWlLk6GJQsqaUBKTNV-1" vertex="1">
          <mxGeometry x="270" y="410" width="50" height="30" as="geometry" />
        </mxCell>
        <mxCell id="Up7lHy-KGbzecZRufIWr-9" style="edgeStyle=orthogonalEdgeStyle;rounded=0;orthogonalLoop=1;jettySize=auto;html=1;exitX=1;exitY=0.5;exitDx=0;exitDy=0;" parent="WIyWlLk6GJQsqaUBKTNV-1" source="Up7lHy-KGbzecZRufIWr-6" edge="1">
          <mxGeometry relative="1" as="geometry">
            <mxPoint x="340" y="570" as="targetPoint" />
          </mxGeometry>
        </mxCell>
        <mxCell id="Up7lHy-KGbzecZRufIWr-17" style="edgeStyle=orthogonalEdgeStyle;rounded=0;orthogonalLoop=1;jettySize=auto;html=1;exitX=0.5;exitY=1;exitDx=0;exitDy=0;entryX=0.5;entryY=0;entryDx=0;entryDy=0;" parent="WIyWlLk6GJQsqaUBKTNV-1" source="Up7lHy-KGbzecZRufIWr-6" target="Up7lHy-KGbzecZRufIWr-14" edge="1">
          <mxGeometry relative="1" as="geometry" />
        </mxCell>
        <mxCell id="Up7lHy-KGbzecZRufIWr-6" value="b==0 &amp;amp;&amp;amp; c &amp;lt;0" style="rhombus;whiteSpace=wrap;html=1;" parent="WIyWlLk6GJQsqaUBKTNV-1" vertex="1">
          <mxGeometry x="180" y="530" width="90" height="80" as="geometry" />
        </mxCell>
        <mxCell id="Up7lHy-KGbzecZRufIWr-8" value="False" style="text;html=1;align=center;verticalAlign=middle;resizable=0;points=[];autosize=1;strokeColor=none;fillColor=none;" parent="WIyWlLk6GJQsqaUBKTNV-1" vertex="1">
          <mxGeometry x="230" y="480" width="50" height="30" as="geometry" />
        </mxCell>
        <mxCell id="Up7lHy-KGbzecZRufIWr-10" value="True" style="text;html=1;align=center;verticalAlign=middle;resizable=0;points=[];autosize=1;strokeColor=none;fillColor=none;" parent="WIyWlLk6GJQsqaUBKTNV-1" vertex="1">
          <mxGeometry x="270" y="540" width="50" height="30" as="geometry" />
        </mxCell>
        <mxCell id="Up7lHy-KGbzecZRufIWr-11" value="Phương trình có 2 nghiệm &lt;br&gt;phân biệt là: cộng trừ căn&amp;nbsp;&lt;br&gt;bậc 2 ( c/a)" style="shape=parallelogram;perimeter=parallelogramPerimeter;whiteSpace=wrap;html=1;fixedSize=1;" parent="WIyWlLk6GJQsqaUBKTNV-1" vertex="1">
          <mxGeometry x="325" y="530" width="195" height="90" as="geometry" />
        </mxCell>
        <mxCell id="Up7lHy-KGbzecZRufIWr-13" value="False" style="text;html=1;align=center;verticalAlign=middle;resizable=0;points=[];autosize=1;strokeColor=none;fillColor=none;" parent="WIyWlLk6GJQsqaUBKTNV-1" vertex="1">
          <mxGeometry x="230" y="620" width="50" height="30" as="geometry" />
        </mxCell>
        <mxCell id="Up7lHy-KGbzecZRufIWr-18" style="edgeStyle=orthogonalEdgeStyle;rounded=0;orthogonalLoop=1;jettySize=auto;html=1;exitX=1;exitY=0.5;exitDx=0;exitDy=0;" parent="WIyWlLk6GJQsqaUBKTNV-1" source="Up7lHy-KGbzecZRufIWr-14" edge="1">
          <mxGeometry relative="1" as="geometry">
            <mxPoint x="340" y="720" as="targetPoint" />
          </mxGeometry>
        </mxCell>
        <mxCell id="Up7lHy-KGbzecZRufIWr-14" value="b != 0" style="rhombus;whiteSpace=wrap;html=1;" parent="WIyWlLk6GJQsqaUBKTNV-1" vertex="1">
          <mxGeometry x="185" y="680" width="80" height="80" as="geometry" />
        </mxCell>
        <mxCell id="XyQsFvjdrJ1w3c3nggrA-1" style="edgeStyle=orthogonalEdgeStyle;rounded=0;orthogonalLoop=1;jettySize=auto;html=1;exitX=0.5;exitY=1;exitDx=0;exitDy=0;" edge="1" parent="WIyWlLk6GJQsqaUBKTNV-1" source="Up7lHy-KGbzecZRufIWr-20" target="XyQsFvjdrJ1w3c3nggrA-0">
          <mxGeometry relative="1" as="geometry" />
        </mxCell>
        <mxCell id="Up7lHy-KGbzecZRufIWr-20" value="START" style="ellipse;whiteSpace=wrap;html=1;" parent="WIyWlLk6GJQsqaUBKTNV-1" vertex="1">
          <mxGeometry x="935" y="-90" width="120" height="80" as="geometry" />
        </mxCell>
        <mxCell id="Up7lHy-KGbzecZRufIWr-21" style="edgeStyle=orthogonalEdgeStyle;rounded=0;orthogonalLoop=1;jettySize=auto;html=1;exitX=0.5;exitY=1;exitDx=0;exitDy=0;entryX=0.5;entryY=0;entryDx=0;entryDy=0;" parent="WIyWlLk6GJQsqaUBKTNV-1" source="Up7lHy-KGbzecZRufIWr-22" target="Up7lHy-KGbzecZRufIWr-25" edge="1">
          <mxGeometry relative="1" as="geometry" />
        </mxCell>
        <mxCell id="Up7lHy-KGbzecZRufIWr-22" value="a,b,x" style="shape=parallelogram;perimeter=parallelogramPerimeter;whiteSpace=wrap;html=1;fixedSize=1;" parent="WIyWlLk6GJQsqaUBKTNV-1" vertex="1">
          <mxGeometry x="935" y="150" width="120" height="60" as="geometry" />
        </mxCell>
        <mxCell id="Up7lHy-KGbzecZRufIWr-23" style="edgeStyle=orthogonalEdgeStyle;rounded=0;orthogonalLoop=1;jettySize=auto;html=1;exitX=1;exitY=0.5;exitDx=0;exitDy=0;entryX=0;entryY=0.5;entryDx=0;entryDy=0;" parent="WIyWlLk6GJQsqaUBKTNV-1" source="Up7lHy-KGbzecZRufIWr-25" edge="1">
          <mxGeometry relative="1" as="geometry">
            <mxPoint x="1095" y="310" as="targetPoint" />
          </mxGeometry>
        </mxCell>
        <mxCell id="Up7lHy-KGbzecZRufIWr-24" style="edgeStyle=orthogonalEdgeStyle;rounded=0;orthogonalLoop=1;jettySize=auto;html=1;exitX=0;exitY=0.5;exitDx=0;exitDy=0;entryX=1;entryY=0.5;entryDx=0;entryDy=0;" parent="WIyWlLk6GJQsqaUBKTNV-1" source="Up7lHy-KGbzecZRufIWr-25" edge="1">
          <mxGeometry relative="1" as="geometry">
            <mxPoint x="885" y="310" as="targetPoint" />
          </mxGeometry>
        </mxCell>
        <mxCell id="Up7lHy-KGbzecZRufIWr-25" value="a=0" style="rhombus;whiteSpace=wrap;html=1;" parent="WIyWlLk6GJQsqaUBKTNV-1" vertex="1">
          <mxGeometry x="940" y="260" width="110" height="100" as="geometry" />
        </mxCell>
        <mxCell id="Up7lHy-KGbzecZRufIWr-26" value="True" style="text;html=1;align=center;verticalAlign=middle;resizable=0;points=[];autosize=1;strokeColor=none;fillColor=none;" parent="WIyWlLk6GJQsqaUBKTNV-1" vertex="1">
          <mxGeometry x="1040" y="268" width="50" height="30" as="geometry" />
        </mxCell>
        <mxCell id="Up7lHy-KGbzecZRufIWr-27" value="Phương trình có &lt;br&gt;1 nghiệm: x = -b/c" style="shape=parallelogram;perimeter=parallelogramPerimeter;whiteSpace=wrap;html=1;fixedSize=1;" parent="WIyWlLk6GJQsqaUBKTNV-1" vertex="1">
          <mxGeometry x="1085" y="280" width="120" height="60" as="geometry" />
        </mxCell>
        <mxCell id="Up7lHy-KGbzecZRufIWr-30" style="edgeStyle=orthogonalEdgeStyle;rounded=0;orthogonalLoop=1;jettySize=auto;html=1;exitX=0.5;exitY=1;exitDx=0;exitDy=0;entryX=0.5;entryY=0;entryDx=0;entryDy=0;" parent="WIyWlLk6GJQsqaUBKTNV-1" source="Up7lHy-KGbzecZRufIWr-28" target="Up7lHy-KGbzecZRufIWr-29" edge="1">
          <mxGeometry relative="1" as="geometry" />
        </mxCell>
        <mxCell id="Up7lHy-KGbzecZRufIWr-28" value="delta = b^2 - 4*a*c" style="rounded=0;whiteSpace=wrap;html=1;" parent="WIyWlLk6GJQsqaUBKTNV-1" vertex="1">
          <mxGeometry x="760" y="280" width="120" height="60" as="geometry" />
        </mxCell>
        <mxCell id="XyQsFvjdrJ1w3c3nggrA-4" style="edgeStyle=orthogonalEdgeStyle;rounded=0;orthogonalLoop=1;jettySize=auto;html=1;exitX=0.5;exitY=1;exitDx=0;exitDy=0;entryX=0.5;entryY=0;entryDx=0;entryDy=0;" edge="1" parent="WIyWlLk6GJQsqaUBKTNV-1" source="Up7lHy-KGbzecZRufIWr-29" target="XyQsFvjdrJ1w3c3nggrA-3">
          <mxGeometry relative="1" as="geometry" />
        </mxCell>
        <mxCell id="XyQsFvjdrJ1w3c3nggrA-6" style="edgeStyle=orthogonalEdgeStyle;rounded=0;orthogonalLoop=1;jettySize=auto;html=1;exitX=1;exitY=0.5;exitDx=0;exitDy=0;entryX=0;entryY=0.5;entryDx=0;entryDy=0;" edge="1" parent="WIyWlLk6GJQsqaUBKTNV-1" source="Up7lHy-KGbzecZRufIWr-29" target="XyQsFvjdrJ1w3c3nggrA-5">
          <mxGeometry relative="1" as="geometry" />
        </mxCell>
        <mxCell id="Up7lHy-KGbzecZRufIWr-29" value="delta &amp;lt; 0" style="rhombus;whiteSpace=wrap;html=1;" parent="WIyWlLk6GJQsqaUBKTNV-1" vertex="1">
          <mxGeometry x="777.5" y="417.5" width="85" height="70" as="geometry" />
        </mxCell>
        <mxCell id="XyQsFvjdrJ1w3c3nggrA-2" style="edgeStyle=orthogonalEdgeStyle;rounded=0;orthogonalLoop=1;jettySize=auto;html=1;exitX=0.5;exitY=1;exitDx=0;exitDy=0;entryX=0.5;entryY=0;entryDx=0;entryDy=0;" edge="1" parent="WIyWlLk6GJQsqaUBKTNV-1" source="XyQsFvjdrJ1w3c3nggrA-0" target="Up7lHy-KGbzecZRufIWr-22">
          <mxGeometry relative="1" as="geometry" />
        </mxCell>
        <mxCell id="XyQsFvjdrJ1w3c3nggrA-0" value="x1,x2" style="rounded=0;whiteSpace=wrap;html=1;" vertex="1" parent="WIyWlLk6GJQsqaUBKTNV-1">
          <mxGeometry x="935" y="40" width="120" height="60" as="geometry" />
        </mxCell>
        <mxCell id="XyQsFvjdrJ1w3c3nggrA-12" style="edgeStyle=orthogonalEdgeStyle;rounded=0;orthogonalLoop=1;jettySize=auto;html=1;exitX=0.5;exitY=1;exitDx=0;exitDy=0;entryX=0;entryY=0.5;entryDx=0;entryDy=0;" edge="1" parent="WIyWlLk6GJQsqaUBKTNV-1" source="XyQsFvjdrJ1w3c3nggrA-3" target="XyQsFvjdrJ1w3c3nggrA-11">
          <mxGeometry relative="1" as="geometry" />
        </mxCell>
        <mxCell id="XyQsFvjdrJ1w3c3nggrA-3" value="Phuong trinh vo nghiem" style="shape=parallelogram;perimeter=parallelogramPerimeter;whiteSpace=wrap;html=1;fixedSize=1;" vertex="1" parent="WIyWlLk6GJQsqaUBKTNV-1">
          <mxGeometry x="760" y="600" width="120" height="60" as="geometry" />
        </mxCell>
        <mxCell id="XyQsFvjdrJ1w3c3nggrA-8" style="edgeStyle=orthogonalEdgeStyle;rounded=0;orthogonalLoop=1;jettySize=auto;html=1;exitX=0.5;exitY=1;exitDx=0;exitDy=0;entryX=0.5;entryY=0;entryDx=0;entryDy=0;" edge="1" parent="WIyWlLk6GJQsqaUBKTNV-1" source="XyQsFvjdrJ1w3c3nggrA-5" target="XyQsFvjdrJ1w3c3nggrA-7">
          <mxGeometry relative="1" as="geometry" />
        </mxCell>
        <mxCell id="XyQsFvjdrJ1w3c3nggrA-10" style="edgeStyle=orthogonalEdgeStyle;rounded=0;orthogonalLoop=1;jettySize=auto;html=1;exitX=1;exitY=0.5;exitDx=0;exitDy=0;entryX=0;entryY=0.5;entryDx=0;entryDy=0;" edge="1" parent="WIyWlLk6GJQsqaUBKTNV-1" source="XyQsFvjdrJ1w3c3nggrA-5" target="XyQsFvjdrJ1w3c3nggrA-9">
          <mxGeometry relative="1" as="geometry" />
        </mxCell>
        <mxCell id="XyQsFvjdrJ1w3c3nggrA-5" value="delta&amp;gt;0" style="rhombus;whiteSpace=wrap;html=1;" vertex="1" parent="WIyWlLk6GJQsqaUBKTNV-1">
          <mxGeometry x="945" y="395" width="120" height="115" as="geometry" />
        </mxCell>
        <mxCell id="XyQsFvjdrJ1w3c3nggrA-13" style="edgeStyle=orthogonalEdgeStyle;rounded=0;orthogonalLoop=1;jettySize=auto;html=1;exitX=0.5;exitY=1;exitDx=0;exitDy=0;" edge="1" parent="WIyWlLk6GJQsqaUBKTNV-1" source="XyQsFvjdrJ1w3c3nggrA-7" target="XyQsFvjdrJ1w3c3nggrA-11">
          <mxGeometry relative="1" as="geometry" />
        </mxCell>
        <mxCell id="XyQsFvjdrJ1w3c3nggrA-7" value="phuong trinh co 2 nghiem &lt;br&gt;x1=(-b+sqrt(delta))/(2*a)&lt;br&gt;x2=(-b-sqrt(delta))/(2*a)" style="shape=parallelogram;perimeter=parallelogramPerimeter;whiteSpace=wrap;html=1;fixedSize=1;" vertex="1" parent="WIyWlLk6GJQsqaUBKTNV-1">
          <mxGeometry x="905" y="600" width="200" height="60" as="geometry" />
        </mxCell>
        <mxCell id="XyQsFvjdrJ1w3c3nggrA-9" value="phuong trinh co 1 &lt;br&gt;nghiem x1=x2=-b/(2*a)" style="shape=parallelogram;perimeter=parallelogramPerimeter;whiteSpace=wrap;html=1;fixedSize=1;" vertex="1" parent="WIyWlLk6GJQsqaUBKTNV-1">
          <mxGeometry x="1130" y="418.75" width="150" height="67.5" as="geometry" />
        </mxCell>
        <mxCell id="XyQsFvjdrJ1w3c3nggrA-11" value="END" style="ellipse;whiteSpace=wrap;html=1;" vertex="1" parent="WIyWlLk6GJQsqaUBKTNV-1">
          <mxGeometry x="945" y="740" width="120" height="80" as="geometry" />
        </mxCell>
        <mxCell id="XyQsFvjdrJ1w3c3nggrA-14" style="edgeStyle=orthogonalEdgeStyle;rounded=0;orthogonalLoop=1;jettySize=auto;html=1;exitX=0.5;exitY=1;exitDx=0;exitDy=0;entryX=1;entryY=0.637;entryDx=0;entryDy=0;entryPerimeter=0;" edge="1" parent="WIyWlLk6GJQsqaUBKTNV-1" source="XyQsFvjdrJ1w3c3nggrA-9" target="XyQsFvjdrJ1w3c3nggrA-11">
          <mxGeometry relative="1" as="geometry" />
        </mxCell>
      </root>
    </mxGraphModel>
  </diagram>
</mxfile>
